<svg width="220" height="220" viewBox="0 0 220 220" fill="none" xmlns="http://www.w3.org/2000/svg">
<circle cx="110" cy="109.964" r="109.5" fill="#01192D"/>
<g clip-path="url(#clip0_35_2)">
<path d="M171.664 91.3888C173.127 91.3888 174.313 90.2009 174.313 88.7355C174.313 87.2701 173.127 86.0821 171.664 86.0821C170.201 86.0821 169.015 87.2701 169.015 88.7355C169.015 90.2009 170.201 91.3888 171.664 91.3888Z" fill="#F24BA0"/>
<path d="M182.26 102.002C183.723 102.002 184.909 100.814 184.909 99.3489C184.909 97.8835 183.723 96.6955 182.26 96.6955C180.797 96.6955 179.611 97.8835 179.611 99.3489C179.611 100.814 180.797 102.002 182.26 102.002Z" fill="#F24BA0"/>
<path d="M92.3513 112.616C93.8142 112.616 95.0002 111.428 95.0002 109.962C95.0002 108.497 93.8142 107.309 92.3513 107.309C90.8884 107.309 89.7024 108.497 89.7024 109.962C89.7024 111.428 90.8884 112.616 92.3513 112.616Z" fill="#F24BA0"/>
<path d="M92.3513 107.309C93.8142 107.309 95.0002 106.121 95.0002 104.656C95.0002 103.19 93.8142 102.002 92.3513 102.002C90.8884 102.002 89.7024 103.19 89.7024 104.656C89.7024 106.121 90.8884 107.309 92.3513 107.309Z" fill="#F24BA0"/>
<path d="M166.371 107.309C167.834 107.309 169.019 106.121 169.019 104.656C169.019 103.19 167.834 102.002 166.371 102.002C164.908 102.002 163.722 103.19 163.722 104.656C163.722 106.121 164.908 107.309 166.371 107.309Z" fill="#00A877"/>
<path d="M155.775 86.0778C157.238 86.0778 158.424 84.8899 158.424 83.4245C158.424 81.9591 157.238 80.7711 155.775 80.7711C154.312 80.7711 153.126 81.9591 153.126 83.4245C153.126 84.8899 154.312 86.0778 155.775 86.0778Z" fill="#00A877"/>
<path d="M134.588 91.3888C136.051 91.3888 137.237 90.2009 137.237 88.7355C137.237 87.2701 136.051 86.0821 134.588 86.0821C133.125 86.0821 131.939 87.2701 131.939 88.7355C131.939 90.2009 133.125 91.3888 134.588 91.3888Z" fill="#00A877"/>
<path d="M155.775 91.3888C157.238 91.3888 158.424 90.2009 158.424 88.7355C158.424 87.2701 157.238 86.0821 155.775 86.0821C154.312 86.0821 153.126 87.2701 153.126 88.7355C153.126 90.2009 154.312 91.3888 155.775 91.3888Z" fill="#00A877"/>
<path d="M134.588 96.6955C136.051 96.6955 137.237 95.5076 137.237 94.0422C137.237 92.5768 136.051 91.3888 134.588 91.3888C133.125 91.3888 131.939 92.5768 131.939 94.0422C131.939 95.5076 133.125 96.6955 134.588 96.6955Z" fill="#00A877"/>
<path d="M155.775 96.6955C157.238 96.6955 158.424 95.5076 158.424 94.0422C158.424 92.5768 157.238 91.3888 155.775 91.3888C154.312 91.3888 153.126 92.5768 153.126 94.0422C153.126 95.5076 154.312 96.6955 155.775 96.6955Z" fill="#00A877"/>
<path d="M134.588 102.002C136.051 102.002 137.237 100.814 137.237 99.3489C137.237 97.8835 136.051 96.6955 134.588 96.6955C133.125 96.6955 131.939 97.8835 131.939 99.3489C131.939 100.814 133.125 102.002 134.588 102.002Z" fill="#00A877"/>
<path d="M139.886 102.002C141.349 102.002 142.535 100.814 142.535 99.3489C142.535 97.8835 141.349 96.6955 139.886 96.6955C138.423 96.6955 137.237 97.8835 137.237 99.3489C137.237 100.814 138.423 102.002 139.886 102.002Z" fill="#00A877"/>
<path d="M145.184 102.002C146.647 102.002 147.833 100.814 147.833 99.3489C147.833 97.8835 146.647 96.6955 145.184 96.6955C143.721 96.6955 142.535 97.8835 142.535 99.3489C142.535 100.814 143.721 102.002 145.184 102.002Z" fill="#00A877"/>
<path d="M155.775 102.002C157.238 102.002 158.424 100.814 158.424 99.3489C158.424 97.8835 157.238 96.6955 155.775 96.6955C154.312 96.6955 153.126 97.8835 153.126 99.3489C153.126 100.814 154.312 102.002 155.775 102.002Z" fill="#00A877"/>
<path d="M161.073 102.002C162.536 102.002 163.722 100.814 163.722 99.3489C163.722 97.8835 162.536 96.6955 161.073 96.6955C159.61 96.6955 158.424 97.8835 158.424 99.3489C158.424 100.814 159.61 102.002 161.073 102.002Z" fill="#00A877"/>
<path d="M166.371 102.002C167.834 102.002 169.019 100.814 169.019 99.3489C169.019 97.8835 167.834 96.6955 166.371 96.6955C164.908 96.6955 163.722 97.8835 163.722 99.3489C163.722 100.814 164.908 102.002 166.371 102.002Z" fill="#00A877"/>
<path d="M171.664 102.002C173.127 102.002 174.313 100.814 174.313 99.3489C174.313 97.8835 173.127 96.6955 171.664 96.6955C170.201 96.6955 169.015 97.8835 169.015 99.3489C169.015 100.814 170.201 102.002 171.664 102.002Z" fill="#00A877"/>
<path d="M145.184 107.309C146.647 107.309 147.833 106.121 147.833 104.656C147.833 103.19 146.647 102.002 145.184 102.002C143.721 102.002 142.535 103.19 142.535 104.656C142.535 106.121 143.721 107.309 145.184 107.309Z" fill="#00A877"/>
<path d="M161.073 107.309C162.536 107.309 163.722 106.121 163.722 104.656C163.722 103.19 162.536 102.002 161.073 102.002C159.61 102.002 158.424 103.19 158.424 104.656C158.424 106.121 159.61 107.309 161.073 107.309Z" fill="#00A877"/>
<path d="M171.664 107.309C173.127 107.309 174.313 106.121 174.313 104.656C174.313 103.19 173.127 102.002 171.664 102.002C170.201 102.002 169.015 103.19 169.015 104.656C169.015 106.121 170.201 107.309 171.664 107.309Z" fill="#00A877"/>
<path d="M145.184 112.62C146.647 112.62 147.833 111.432 147.833 109.967C147.833 108.501 146.647 107.313 145.184 107.313C143.721 107.313 142.535 108.501 142.535 109.967C142.535 111.432 143.721 112.62 145.184 112.62Z" fill="#00A877"/>
<path d="M155.775 112.62C157.238 112.62 158.424 111.432 158.424 109.967C158.424 108.501 157.238 107.313 155.775 107.313C154.312 107.313 153.126 108.501 153.126 109.967C153.126 111.432 154.312 112.62 155.775 112.62Z" fill="#00A877"/>
<path d="M161.073 112.62C162.536 112.62 163.722 111.432 163.722 109.967C163.722 108.501 162.536 107.313 161.073 107.313C159.61 107.313 158.424 108.501 158.424 109.967C158.424 111.432 159.61 112.62 161.073 112.62Z" fill="#00A877"/>
<path d="M166.371 112.62C167.834 112.62 169.019 111.432 169.019 109.967C169.019 108.501 167.834 107.313 166.371 107.313C164.908 107.313 163.722 108.501 163.722 109.967C163.722 111.432 164.908 112.62 166.371 112.62Z" fill="#00A877"/>
<path d="M171.664 112.62C173.127 112.62 174.313 111.432 174.313 109.967C174.313 108.501 173.127 107.313 171.664 107.313C170.201 107.313 169.015 108.501 169.015 109.967C169.015 111.432 170.201 112.62 171.664 112.62Z" fill="#00A877"/>
<path d="M145.184 117.927C146.647 117.927 147.833 116.739 147.833 115.273C147.833 113.808 146.647 112.62 145.184 112.62C143.721 112.62 142.535 113.808 142.535 115.273C142.535 116.739 143.721 117.927 145.184 117.927Z" fill="#00A877"/>
<path d="M155.775 117.927C157.238 117.927 158.424 116.739 158.424 115.273C158.424 113.808 157.238 112.62 155.775 112.62C154.312 112.62 153.126 113.808 153.126 115.273C153.126 116.739 154.312 117.927 155.775 117.927Z" fill="#00A877"/>
<path d="M161.073 117.927C162.536 117.927 163.722 116.739 163.722 115.273C163.722 113.808 162.536 112.62 161.073 112.62C159.61 112.62 158.424 113.808 158.424 115.273C158.424 116.739 159.61 117.927 161.073 117.927Z" fill="#00A877"/>
<path d="M171.664 117.927C173.127 117.927 174.313 116.739 174.313 115.273C174.313 113.808 173.127 112.62 171.664 112.62C170.201 112.62 169.015 113.808 169.015 115.273C169.015 116.739 170.201 117.927 171.664 117.927Z" fill="#00A877"/>
<path d="M171.664 123.233C173.127 123.233 174.313 122.045 174.313 120.58C174.313 119.115 173.127 117.927 171.664 117.927C170.201 117.927 169.015 119.115 169.015 120.58C169.015 122.045 170.201 123.233 171.664 123.233Z" fill="#00A877"/>
<path d="M176.962 123.233C178.425 123.233 179.611 122.045 179.611 120.58C179.611 119.115 178.425 117.927 176.962 117.927C175.499 117.927 174.313 119.115 174.313 120.58C174.313 122.045 175.499 123.233 176.962 123.233Z" fill="#00A877"/>
<path d="M182.26 123.233C183.723 123.233 184.909 122.045 184.909 120.58C184.909 119.115 183.723 117.927 182.26 117.927C180.797 117.927 179.611 119.115 179.611 120.58C179.611 122.045 180.797 123.233 182.26 123.233Z" fill="#00A877"/>
<path d="M187.558 123.233C189.021 123.233 190.207 122.045 190.207 120.58C190.207 119.115 189.021 117.927 187.558 117.927C186.095 117.927 184.909 119.115 184.909 120.58C184.909 122.045 186.095 123.233 187.558 123.233Z" fill="#00A877"/>
<path d="M155.775 128.54C157.238 128.54 158.424 127.352 158.424 125.887C158.424 124.421 157.238 123.233 155.775 123.233C154.312 123.233 153.126 124.421 153.126 125.887C153.126 127.352 154.312 128.54 155.775 128.54Z" fill="#00A877"/>
<path d="M161.073 128.54C162.536 128.54 163.722 127.352 163.722 125.887C163.722 124.421 162.536 123.233 161.073 123.233C159.61 123.233 158.424 124.421 158.424 125.887C158.424 127.352 159.61 128.54 161.073 128.54Z" fill="#00A877"/>
<path d="M139.886 133.851C141.349 133.851 142.535 132.663 142.535 131.198C142.535 129.732 141.349 128.544 139.886 128.544C138.423 128.544 137.237 129.732 137.237 131.198C137.237 132.663 138.423 133.851 139.886 133.851Z" fill="#00A877"/>
<path d="M145.184 133.851C146.647 133.851 147.833 132.663 147.833 131.198C147.833 129.732 146.647 128.544 145.184 128.544C143.721 128.544 142.535 129.732 142.535 131.198C142.535 132.663 143.721 133.851 145.184 133.851Z" fill="#00A877"/>
<path d="M150.477 133.851C151.94 133.851 153.126 132.663 153.126 131.198C153.126 129.732 151.94 128.544 150.477 128.544C149.014 128.544 147.828 129.732 147.828 131.198C147.828 132.663 149.014 133.851 150.477 133.851Z" fill="#00A877"/>
<path d="M155.775 133.851C157.238 133.851 158.424 132.663 158.424 131.198C158.424 129.732 157.238 128.544 155.775 128.544C154.312 128.544 153.126 129.732 153.126 131.198C153.126 132.663 154.312 133.851 155.775 133.851Z" fill="#00A877"/>
<path d="M161.073 133.851C162.536 133.851 163.722 132.663 163.722 131.198C163.722 129.732 162.536 128.544 161.073 128.544C159.61 128.544 158.424 129.732 158.424 131.198C158.424 132.663 159.61 133.851 161.073 133.851Z" fill="#00A877"/>
<path d="M166.371 133.851C167.834 133.851 169.019 132.663 169.019 131.198C169.019 129.732 167.834 128.544 166.371 128.544C164.908 128.544 163.722 129.732 163.722 131.198C163.722 132.663 164.908 133.851 166.371 133.851Z" fill="#00A877"/>
<path d="M139.886 139.158C141.349 139.158 142.535 137.97 142.535 136.504C142.535 135.039 141.349 133.851 139.886 133.851C138.423 133.851 137.237 135.039 137.237 136.504C137.237 137.97 138.423 139.158 139.886 139.158Z" fill="#00A877"/>
<path d="M155.775 80.7711C157.238 80.7711 158.424 79.5832 158.424 78.1178C158.424 76.6524 157.238 75.4644 155.775 75.4644C154.312 75.4644 153.126 76.6524 153.126 78.1178C153.126 79.5832 154.312 80.7711 155.775 80.7711Z" fill="#00A877"/>
<path d="M134.588 86.0778C136.051 86.0778 137.237 84.8899 137.237 83.4245C137.237 81.9591 136.051 80.7711 134.588 80.7711C133.125 80.7711 131.939 81.9591 131.939 83.4245C131.939 84.8899 133.125 86.0778 134.588 86.0778Z" fill="#00A877"/>
<path d="M150.477 86.0778C151.94 86.0778 153.126 84.8899 153.126 83.4245C153.126 81.9591 151.94 80.7711 150.477 80.7711C149.014 80.7711 147.828 81.9591 147.828 83.4245C147.828 84.8899 149.014 86.0778 150.477 86.0778Z" fill="#00A877"/>
<path d="M161.073 86.0778C162.536 86.0778 163.722 84.8899 163.722 83.4245C163.722 81.9591 162.536 80.7711 161.073 80.7711C159.61 80.7711 158.424 81.9591 158.424 83.4245C158.424 84.8899 159.61 86.0778 161.073 86.0778Z" fill="#00A877"/>
<path d="M129.295 91.3888C130.758 91.3888 131.944 90.2009 131.944 88.7355C131.944 87.2701 130.758 86.0821 129.295 86.0821C127.832 86.0821 126.646 87.2701 126.646 88.7355C126.646 90.2009 127.832 91.3888 129.295 91.3888Z" fill="#00A877"/>
<path d="M139.886 91.3888C141.349 91.3888 142.535 90.2009 142.535 88.7355C142.535 87.2701 141.349 86.0821 139.886 86.0821C138.423 86.0821 137.237 87.2701 137.237 88.7355C137.237 90.2009 138.423 91.3888 139.886 91.3888Z" fill="#00A877"/>
<path d="M176.962 91.3888C178.425 91.3888 179.611 90.2009 179.611 88.7355C179.611 87.2701 178.425 86.0821 176.962 86.0821C175.499 86.0821 174.313 87.2701 174.313 88.7355C174.313 90.2009 175.499 91.3888 176.962 91.3888Z" fill="#00A877"/>
<path d="M166.371 96.6955C167.834 96.6955 169.02 95.5076 169.02 94.0422C169.02 92.5768 167.834 91.3888 166.371 91.3888C164.908 91.3888 163.722 92.5768 163.722 94.0422C163.722 95.5076 164.908 96.6955 166.371 96.6955Z" fill="#00A877"/>
<path d="M171.664 96.6955C173.127 96.6955 174.313 95.5076 174.313 94.0422C174.313 92.5768 173.127 91.3888 171.664 91.3888C170.201 91.3888 169.015 92.5768 169.015 94.0422C169.015 95.5076 170.201 96.6955 171.664 96.6955Z" fill="#00A877"/>
<path d="M176.962 96.6955C178.425 96.6955 179.611 95.5076 179.611 94.0422C179.611 92.5768 178.425 91.3888 176.962 91.3888C175.499 91.3888 174.313 92.5768 174.313 94.0422C174.313 95.5076 175.499 96.6955 176.962 96.6955Z" fill="#00A877"/>
<path d="M182.26 96.6955C183.723 96.6955 184.909 95.5076 184.909 94.0422C184.909 92.5768 183.723 91.3888 182.26 91.3888C180.797 91.3888 179.611 92.5768 179.611 94.0422C179.611 95.5076 180.797 96.6955 182.26 96.6955Z" fill="#00A877"/>
<path d="M176.962 102.002C178.425 102.002 179.611 100.814 179.611 99.3489C179.611 97.8835 178.425 96.6955 176.962 96.6955C175.499 96.6955 174.313 97.8835 174.313 99.3489C174.313 100.814 175.499 102.002 176.962 102.002Z" fill="#00A877"/>
<path d="M155.775 107.309C157.238 107.309 158.424 106.121 158.424 104.656C158.424 103.19 157.238 102.002 155.775 102.002C154.312 102.002 153.126 103.19 153.126 104.656C153.126 106.121 154.312 107.309 155.775 107.309Z" fill="#00A877"/>
<path d="M176.962 107.309C178.425 107.309 179.611 106.121 179.611 104.656C179.611 103.19 178.425 102.002 176.962 102.002C175.499 102.002 174.313 103.19 174.313 104.656C174.313 106.121 175.499 107.309 176.962 107.309Z" fill="#00A877"/>
<path d="M150.477 112.62C151.94 112.62 153.126 111.432 153.126 109.967C153.126 108.501 151.94 107.313 150.477 107.313C149.014 107.313 147.828 108.501 147.828 109.967C147.828 111.432 149.014 112.62 150.477 112.62Z" fill="#00A877"/>
<path d="M150.477 117.927C151.94 117.927 153.126 116.739 153.126 115.273C153.126 113.808 151.94 112.62 150.477 112.62C149.014 112.62 147.828 113.808 147.828 115.273C147.828 116.739 149.014 117.927 150.477 117.927Z" fill="#00A877"/>
<path d="M166.371 117.927C167.834 117.927 169.02 116.739 169.02 115.273C169.02 113.808 167.834 112.62 166.371 112.62C164.908 112.62 163.722 113.808 163.722 115.273C163.722 116.739 164.908 117.927 166.371 117.927Z" fill="#00A877"/>
<path d="M187.558 117.927C189.021 117.927 190.207 116.739 190.207 115.273C190.207 113.808 189.021 112.62 187.558 112.62C186.095 112.62 184.909 113.808 184.909 115.273C184.909 116.739 186.095 117.927 187.558 117.927Z" fill="#00A877"/>
<path d="M150.477 123.233C151.94 123.233 153.126 122.045 153.126 120.58C153.126 119.115 151.94 117.927 150.477 117.927C149.014 117.927 147.828 119.115 147.828 120.58C147.828 122.045 149.014 123.233 150.477 123.233Z" fill="#00A877"/>
<path d="M155.775 123.233C157.238 123.233 158.424 122.045 158.424 120.58C158.424 119.115 157.238 117.927 155.775 117.927C154.312 117.927 153.126 119.115 153.126 120.58C153.126 122.045 154.312 123.233 155.775 123.233Z" fill="#00A877"/>
<path d="M161.073 123.233C162.536 123.233 163.722 122.045 163.722 120.58C163.722 119.115 162.536 117.927 161.073 117.927C159.61 117.927 158.424 119.115 158.424 120.58C158.424 122.045 159.61 123.233 161.073 123.233Z" fill="#00A877"/>
<path d="M192.851 123.233C194.314 123.233 195.5 122.045 195.5 120.58C195.5 119.115 194.314 117.927 192.851 117.927C191.388 117.927 190.202 119.115 190.202 120.58C190.202 122.045 191.388 123.233 192.851 123.233Z" fill="#00A877"/>
<path d="M187.558 128.54C189.021 128.54 190.207 127.352 190.207 125.887C190.207 124.421 189.021 123.233 187.558 123.233C186.095 123.233 184.909 124.421 184.909 125.887C184.909 127.352 186.095 128.54 187.558 128.54Z" fill="#00A877"/>
<path d="M134.588 139.158C136.051 139.158 137.237 137.97 137.237 136.504C137.237 135.039 136.051 133.851 134.588 133.851C133.125 133.851 131.939 135.039 131.939 136.504C131.939 137.97 133.125 139.158 134.588 139.158Z" fill="#00A877"/>
<path d="M145.184 139.158C146.647 139.158 147.833 137.97 147.833 136.504C147.833 135.039 146.647 133.851 145.184 133.851C143.721 133.851 142.535 135.039 142.535 136.504C142.535 137.97 143.721 139.158 145.184 139.158Z" fill="#00A877"/>
<path d="M139.886 144.464C141.349 144.464 142.535 143.276 142.535 141.811C142.535 140.346 141.349 139.158 139.886 139.158C138.423 139.158 137.237 140.346 137.237 141.811C137.237 143.276 138.423 144.464 139.886 144.464Z" fill="#00A877"/>
<path d="M36.9216 112.328C36.3558 112.242 35.79 112.195 35.2671 112.195C31.3451 112.195 29.5578 114.466 29.5578 118.438V128.566H24.5V107.305H29.4249V110.709C30.4279 108.395 32.781 107.043 35.5714 107.043C36.18 107.043 36.703 107.129 36.9216 107.176V112.328Z" fill="#00A877"/>
<path d="M59.7202 122.503C58.5886 126.213 55.2325 129.227 50.1318 129.227C44.3797 129.227 39.2791 125.037 39.2791 117.832C39.2791 111.109 44.2468 106.656 49.6089 106.656C56.1455 106.656 59.9816 110.98 59.9816 117.703C59.9816 118.532 59.8959 119.232 59.8531 119.318H44.3368C44.4654 122.546 46.9943 124.861 50.1318 124.861C53.2694 124.861 54.7524 123.246 55.4511 121.151L59.7245 122.503H59.7202ZM54.881 115.604C54.7953 113.114 53.1365 110.89 49.6518 110.89C46.4714 110.89 44.6412 113.333 44.4654 115.604H54.881Z" fill="#00A877"/>
<path d="M69.8742 128.57H64.8164V107.309H69.7413V110.147C71.1343 107.704 73.6632 106.699 76.0164 106.699C81.2027 106.699 83.6888 110.456 83.6888 115.127V128.574H78.631V115.999C78.631 113.38 77.4523 111.285 74.2719 111.285C71.3958 111.285 69.8699 113.513 69.8699 116.304V128.57H69.8742Z" fill="#00A877"/>
<path d="M100.997 116.304L109.886 128.57H103.697L97.4648 119.88L94.8502 122.632V128.57H89.8396V120.528L103.003 107.309H109.715L100.997 116.304Z" fill="#00A877"/>
<path d="M121.134 129.184C116.076 129.184 113.114 125.427 113.114 120.713V107.309H118.172V119.794C118.172 122.413 119.393 124.642 122.445 124.642C125.497 124.642 126.89 122.675 126.89 119.884V107.309H131.948V124.685C131.948 126.432 132.081 127.784 132.166 128.57H127.327C127.241 128.089 127.151 127.085 127.151 126.213C126.106 128.132 123.62 129.18 121.138 129.18L121.134 129.184Z" fill="#00A877"/>
</g>
<defs>
<clipPath id="clip0_35_2">
<rect width="171" height="69" fill="white" transform="translate(24.5 75.4644)"/>
</clipPath>
</defs>
</svg>
